<?xml version="1.0" encoding="UTF-8"?>
<svg id="Layer_1" data-name="Layer 1" xmlns="http://www.w3.org/2000/svg" xmlns:xlink="http://www.w3.org/1999/xlink" viewBox="0 0 333 333">
  <defs>
    <style>
      .cls-1 {
        fill: #f9f9f9;
      }

      .cls-2 {
        fill: url(#linear-gradient);
      }
    </style>
    <linearGradient id="linear-gradient" x1="0" y1="166.5" x2="333" y2="166.5" gradientUnits="userSpaceOnUse">
      <stop offset="0" stop-color="#202141"/>
      <stop offset="1" stop-color="#202141"/>
    </linearGradient>
  </defs>
  <rect class="cls-2" width="333" height="333"/>
  <g>
    <path class="cls-1" d="m49.99,149.97c7.33-4.11,14.29-7.93,21.16-11.92,2.27-1.32,4.54-1.82,7.14-1.82,63.36.04,126.73.04,190.09.03,9.83,0,14.65-4.84,14.65-14.71,0-18.2,0-36.41,0-54.61,0-8.78-5.12-13.91-13.87-13.91-38.31,0-76.63,0-114.94,0-.69,0-1.39,0-2.08,0-3.24-.04-5.18-1.61-5.16-4.19.02-2.57,1.95-4.13,5.21-4.13,39.27,0,78.53-.03,117.8.01,12.26.01,21.32,9.14,21.35,21.41.05,18.81.03,37.62,0,56.43-.01,13.09-8.95,22-22.09,22-63.28.01-126.55,0-189.83.07-1.79,0-3.75.57-5.34,1.43-8.37,4.54-16.63,9.28-24.96,13.91-4.55,2.53-7.45.84-7.45-4.31,0-29.82-.03-59.64,0-89.45.01-12.31,9.04-21.44,21.28-21.48,17.51-.06,35.02-.02,52.53-.01,3.3,0,5.2,1.53,5.22,4.12.02,2.6-1.88,4.19-5.15,4.19-17.16.01-34.33,0-51.49,0-8.98,0-14.08,5.06-14.08,13.96,0,26.7,0,53.4,0,80.09v2.87Z"/>
    <path class="cls-1" d="m146.99,171.89c28,0,56,0,83.99,0,.87,0,1.75-.09,2.6.06,2.24.4,3.6,1.79,3.6,4.08,0,2.3-1.35,3.69-3.59,4.1-.93.17-1.9.07-2.85.07-55.39,0-110.78,0-166.17,0-9.7,0-14.59,4.86-14.59,14.5,0,18.29,0,36.58,0,54.87,0,8.72,5.16,13.85,13.93,13.86,12.83.01,25.66,0,38.49,0,.87,0,1.77-.09,2.59.11,1.96.49,3.18,1.75,3.27,3.84.09,2.21-1.09,3.57-3.13,4.22-.32.1-.68.12-1.03.12-14.39-.01-28.79.29-43.16-.15-10.63-.33-19.14-9.59-19.22-20.25-.13-19.68-.15-39.35,0-59.03.09-11.49,9.47-20.38,21.28-20.4,28-.05,56-.02,83.99-.02Z"/>
    <path class="cls-1" d="m283.02,277.05c0-1.2,0-2.03,0-2.86,0-26.7-.02-53.4.02-80.1,0-3.22-.65-6.14-2.49-8.83-1.6-2.34-1.17-4.81.86-6.14,1.93-1.26,4.31-.73,5.9,1.4,2.62,3.51,4,7.48,4.01,11.86.03,30.34.03,60.68,0,91.02,0,4.43-3.08,6.16-7.02,3.97-8.32-4.63-16.57-9.4-24.95-13.92-1.8-.97-4.03-1.62-6.06-1.63-37.62-.1-75.25-.07-112.87-.07-.69,0-1.39,0-2.08,0-3.24-.04-5.16-1.64-5.1-4.24.05-2.52,1.89-4.05,5-4.07,3.55-.03,7.11,0,10.66,0,35.37,0,70.74-.03,106.11.08,2.29,0,4.78.75,6.83,1.81,6.3,3.28,12.42,6.88,18.62,10.35.73.41,1.48.79,2.57,1.38Z"/>
    <path class="cls-1" d="m278.74,147.28c5.01.09,8.85,2.25,11.16,6.73,2.36,4.57,1.87,9.04-1.11,13.21-.55.77-1.23,1.45-1.91,2.12-18.92,18.93-37.83,37.88-56.83,56.73-1.32,1.31-3.25,2.28-5.07,2.74-4.1,1.06-8.29,1.74-12.46,2.5-3.77.69-6.03-1.63-5.31-5.43.82-4.33,1.61-8.68,2.65-12.96.35-1.43,1.14-2.94,2.17-3.98,19.12-19.22,38.31-38.38,57.47-57.55,2.56-2.56,5.52-4.13,9.23-4.11Zm-61.9,74.62c3.6-.6,6.9-.99,9.77-3.91,14.61-14.91,29.46-29.6,44.22-44.37.66-.66,1.29-1.35,1.98-2.08-2-1.98-3.87-3.84-6.13-6.07-.66.84-1.22,1.74-1.95,2.48-14.14,14.17-28.21,28.4-42.51,42.4-3.27,3.21-5.55,6.52-5.4,11.55Zm62.08-56.4c2-2.18,4.98-3.64,3.86-6.98-.38-1.15-1.84-2.43-3.04-2.74-3.35-.87-4.66,2.11-6.53,3.83,1.93,1.99,3.72,3.84,5.7,5.9Z"/>
    <path class="cls-1" d="m76.17,119.29c.72-4.39,1.43-9.01,2.27-13.6.34-1.84.12-3.22-1.36-4.61-3.04-2.84-5.99-5.79-8.67-8.95-.98-1.15-1.77-3.28-1.36-4.55.41-1.27,2.3-2.55,3.76-2.89,4.04-.93,8.18-1.45,12.3-1.96,1.59-.2,2.43-.86,3.06-2.29,1.64-3.72,3.46-7.36,5.15-11.06.9-1.97,1.89-3.78,4.4-3.82,2.65-.04,3.65,1.9,4.59,3.93,1.66,3.62,3.43,7.18,5.02,10.83.66,1.52,1.56,2.22,3.25,2.42,4.12.49,8.23,1.14,12.31,1.9,4.18.77,5.31,4.33,2.4,7.46-2.9,3.1-5.83,6.18-8.91,9.1-1.39,1.32-1.63,2.63-1.3,4.38.78,4.26,1.61,8.52,2.01,12.82.14,1.47-.6,3.37-1.58,4.52-1.24,1.45-3.14,1.02-4.79.1-3.7-2.07-7.45-4.06-11.11-6.19-1.26-.73-2.21-.83-3.54-.05-3.8,2.24-7.67,4.37-11.59,6.39-3.06,1.58-6.26-.35-6.29-3.87Zm35.93-26.75c-.18-.31-.36-.62-.53-.93-2.29-.37-4.56-.89-6.86-1.06-2.94-.22-4.76-1.61-5.83-4.34-.83-2.11-1.94-4.12-3.14-6.6-1.32,2.76-2.49,4.97-3.44,7.27-.94,2.27-2.58,3.31-4.94,3.6-2.5.3-4.98.76-7.47,1.15l-.48.89c1.95,1.71,3.91,3.41,5.86,5.12,1.87,1.63,2.47,3.58,1.89,6.06-.59,2.51-.84,5.09-1.31,8.08,2.58-1.41,4.87-2.57,7.07-3.87,1.91-1.13,3.73-1.13,5.64-.04,2.24,1.28,4.51,2.48,7.1,3.9-.49-3.04-.8-5.69-1.36-8.3-.49-2.27.02-4.1,1.74-5.61,2.02-1.77,4.03-3.54,6.05-5.31Z"/>
    <path class="cls-1" d="m146.93,119.16c.73-4.44,1.37-8.9,2.22-13.32.38-1.96.13-3.39-1.42-4.84-2.97-2.78-5.87-5.67-8.5-8.76-.99-1.17-1.68-3.07-1.58-4.57.14-1.98,1.98-2.83,3.95-3.11,4.11-.59,8.24-1.14,12.31-1.95,1.05-.21,2.3-1.14,2.8-2.08,2.01-3.83,3.79-7.77,5.59-11.71.86-1.87,2.02-3.27,4.23-3.25,2.22.02,3.34,1.47,4.18,3.33,1.71,3.78,3.57,7.5,5.25,11.3.7,1.58,1.62,2.36,3.43,2.57,4.12.47,8.23,1.14,12.31,1.91,4.02.75,5.18,4.31,2.39,7.32-2.94,3.18-5.95,6.3-9.09,9.29-1.32,1.26-1.54,2.5-1.25,4.16.77,4.35,1.64,8.69,2.05,13.07.13,1.46-.62,3.56-1.71,4.4-.98.75-3.22.68-4.5.09-3.76-1.75-7.37-3.84-10.92-5.99-1.65-1-2.89-.87-4.47.06-3.65,2.16-7.36,4.23-11.13,6.15-3.14,1.6-6.37-.61-6.16-4.05Zm19.56-39.6c-1.27,2.69-2.4,4.8-3.28,7.01-1.03,2.56-2.84,3.72-5.53,3.97-2.35.21-4.68.71-7.02,1.09-.18.28-.35.56-.53.84,2,1.77,4.01,3.53,6.01,5.3,1.79,1.58,2.32,3.47,1.79,5.85-.58,2.56-.85,5.18-1.31,8.18,2.52-1.38,4.7-2.45,6.75-3.71,2.17-1.34,4.17-1.3,6.33,0,2.08,1.25,4.25,2.34,6.72,3.68-.47-3-.7-5.51-1.29-7.93-.64-2.59.07-4.52,1.95-6.29,1.9-1.78,3.65-3.73,5.73-5.87-3.07-.46-5.54-.88-8.03-1.2-2.25-.29-3.84-1.3-4.75-3.47-.99-2.35-2.17-4.62-3.52-7.44Z"/>
    <path class="cls-1" d="m217.68,119.17c.7-4.36,1.25-8.75,2.18-13.06.5-2.33-.04-3.88-1.74-5.47-2.85-2.66-5.63-5.42-8.13-8.4-.99-1.18-1.69-3.07-1.58-4.57.14-1.98,1.97-2.84,3.95-3.12,4.11-.59,8.24-1.14,12.31-1.95,1.05-.21,2.31-1.13,2.8-2.08,2.04-3.91,3.83-7.94,5.69-11.95.83-1.78,2.04-3.04,4.13-3.02,2.09.02,3.27,1.31,4.08,3.08,1.77,3.85,3.66,7.65,5.35,11.54.75,1.73,1.81,2.39,3.69,2.6,4.04.44,8.06,1.12,12.05,1.88,4.02.76,5.19,4.3,2.41,7.31-2.94,3.18-5.95,6.3-9.09,9.29-1.31,1.25-1.55,2.5-1.26,4.15.77,4.34,1.64,8.69,2.05,13.07.14,1.46-.61,3.57-1.7,4.41-.98.76-3.22.69-4.49.1-3.76-1.75-7.37-3.84-10.92-5.99-1.64-1-2.88-.88-4.47.05-3.65,2.16-7.36,4.23-11.13,6.15-3.14,1.6-6.38-.6-6.17-4.03Zm35.82-27.5c-2.97-.45-5.5-.88-8.04-1.22-2.25-.29-3.82-1.34-4.73-3.5-.99-2.34-2.17-4.6-3.51-7.39-1.23,2.62-2.32,4.67-3.17,6.81-1.04,2.63-2.84,3.94-5.67,4.17-2.34.19-4.66.72-6.99,1.09-.17.29-.35.58-.52.86,2.07,1.83,4.15,3.64,6.21,5.49,1.64,1.47,2.07,3.25,1.62,5.41-.55,2.64-.87,5.32-1.36,8.4,2.49-1.36,4.6-2.38,6.56-3.62,2.33-1.49,4.49-1.39,6.79.04,1.97,1.22,4.07,2.25,6.46,3.56-.5-3.09-.87-5.82-1.41-8.51-.41-2.06.07-3.72,1.56-5.2,2.01-1.99,3.94-4.06,6.19-6.4Z"/>
    <path class="cls-1" d="m197.72,250.95c-21.23,0-42.46,0-63.68,0-.69,0-1.39.03-2.08-.02-2.48-.17-4.15-1.82-4.18-4.09-.03-2.28,1.62-4,4.07-4.2.6-.05,1.21-.02,1.82-.02,42.72,0,85.43,0,128.15,0,.78,0,1.59-.09,2.33.09,2.08.49,3.34,1.78,3.37,4.01.03,2.23-1.19,3.57-3.26,4.1-.82.21-1.72.12-2.59.12-21.31,0-42.63,0-63.94,0Z"/>
    <path class="cls-1" d="m133.47,225.98c20.02,0,40.05,0,60.07,0,.87,0,1.75-.09,2.6.07,2.24.41,3.59,1.8,3.59,4.09,0,2.3-1.37,3.67-3.6,4.09-.76.14-1.56.06-2.34.06-40.4,0-80.79,0-121.19,0-.78,0-1.58.08-2.34-.07-2.23-.42-3.59-1.8-3.59-4.1,0-2.3,1.36-3.68,3.6-4.09.84-.15,1.73-.07,2.6-.07,20.2,0,40.4,0,60.59,0Z"/>
    <path class="cls-1" d="m156.33,201.01c-16.55,0-33.09,0-49.64,0-.78,0-1.57.07-2.34-.06-2.26-.37-3.54-1.76-3.69-4.04-.13-2.13,1.55-3.93,3.8-4.18.77-.09,1.56-.04,2.34-.04,33.09,0,66.19,0,99.28,0,.43,0,.87,0,1.3,0,3.03.07,4.9,1.69,4.86,4.22-.04,2.5-1.91,4.09-4.98,4.09-16.98.02-33.96,0-50.94,0Z"/>
    <path class="cls-1" d="m108.76,209.34c12.12,0,24.25,0,36.37,0,.78,0,1.58-.08,2.33.07,2.22.44,3.55,1.78,3.53,4.12-.02,2.35-1.37,3.64-3.6,4.07-.59.11-1.21.06-1.81.06-24.51,0-49.02,0-73.53,0-.61,0-1.23.05-1.81-.07-2.23-.46-3.57-1.83-3.55-4.13.02-2.3,1.38-3.66,3.62-4.06.76-.14,1.55-.06,2.33-.06,12.04,0,24.08,0,36.11,0Z"/>
    <path class="cls-1" d="m93.55,250.95c-7.19,0-14.39,0-21.58,0-3.43,0-5.4-1.61-5.32-4.28.08-2.57,1.96-4.03,5.3-4.03,14.47,0,28.95,0,43.42,0,3.43,0,5.4,1.61,5.32,4.28-.08,2.57-1.98,4.03-5.31,4.04-7.28.01-14.56,0-21.84,0Z"/>
    <path class="cls-1" d="m177.46,209.34c5.71,0,11.41-.01,17.12,0,3.28.01,5.17,1.55,5.19,4.13.01,2.59-1.9,4.17-5.15,4.18-11.41.02-22.83.01-34.24,0-3.23,0-5.2-1.59-5.21-4.14-.02-2.55,1.95-4.16,5.17-4.17,5.71-.02,11.41,0,17.12,0Z"/>
    <path class="cls-1" d="m77.06,201c-2.08,0-4.16.08-6.23-.02-2.48-.12-4.15-1.83-4.17-4.1-.02-2.27,1.64-4.09,4.1-4.15,4.24-.1,8.49-.1,12.73,0,2.49.05,4.12,1.79,4.14,4.09.02,2.3-1.61,3.97-4.07,4.18-.17.01-.35.01-.52.01-1.99,0-3.98,0-5.98,0,0,0,0,0,0,0Z"/>
    <path class="cls-1" d="m120.55,271.73c-1.21,0-2.42.09-3.62-.02-2.25-.2-3.89-1.98-3.91-4.09-.01-2.1,1.62-4,3.86-4.12,2.58-.14,5.18-.15,7.76,0,2.23.14,3.92,2.1,3.76,4.19-.18,2.24-1.45,3.7-3.71,3.99-1.36.17-2.76.03-4.14.03,0,0,0,0,0,.01Z"/>
    <path class="cls-1" d="m135.16,53.01c-.78,0-1.57.08-2.34-.02-2.25-.28-3.88-2.1-3.74-4.24.16-2.29,1.47-3.68,3.73-3.97,1.37-.17,2.77-.1,4.15-.05,2.79.09,4.61,1.84,4.53,4.27-.08,2.34-1.84,3.91-4.53,4.03-.61.03-1.21,0-1.82,0,0-.01,0-.02,0-.03Z"/>
  </g>
</svg>